<?xml version="1.0" encoding="UTF-8" standalone="no"?><!DOCTYPE svg PUBLIC "-//W3C//DTD SVG 1.1//EN" "http://www.w3.org/Graphics/SVG/1.1/DTD/svg11.dtd"><svg width="100%" height="100%" viewBox="0 0 764 564" version="1.1" xmlns="http://www.w3.org/2000/svg" xmlns:xlink="http://www.w3.org/1999/xlink" xml:space="preserve"  style="fill-rule:evenodd;clip-rule:evenodd;stroke-linejoin:round;stroke-miterlimit:2;"><g><g><circle cx="2" cy="2" r="2" style="fill:#581dd6;"/><circle cx="42" cy="2" r="2" style="fill:#581dd6;"/><circle cx="82" cy="2" r="2" style="fill:#581dd6;"/><circle cx="82" cy="2" r="2" style="fill:#581dd6;"/><circle cx="122" cy="2" r="2" style="fill:#581dd6;"/><circle cx="162" cy="2" r="2" style="fill:#581dd6;"/><circle cx="202" cy="2" r="2" style="fill:#581dd6;"/><circle cx="242" cy="2" r="2" style="fill:#581dd6;"/><circle cx="282" cy="2" r="2" style="fill:#581dd6;"/><circle cx="322" cy="2" r="2" style="fill:#581dd6;"/><circle cx="362" cy="2" r="2" style="fill:#581dd6;"/><circle cx="402" cy="2" r="2" style="fill:#581dd6;"/><circle cx="442" cy="2" r="2" style="fill:#581dd6;"/><circle cx="482" cy="2" r="2" style="fill:#581dd6;"/><circle cx="522" cy="2" r="2" style="fill:#581dd6;"/><circle cx="562" cy="2" r="2" style="fill:#581dd6;"/><circle cx="602" cy="2" r="2" style="fill:#581dd6;"/><circle cx="642" cy="2" r="2" style="fill:#581dd6;"/><circle cx="682" cy="2" r="2" style="fill:#581dd6;"/><circle cx="722" cy="2" r="2" style="fill:#581dd6;"/><circle cx="762" cy="2" r="2" style="fill:#581dd6;"/></g><g><circle cx="2" cy="42" r="2" style="fill:#581dd6;"/><circle cx="42" cy="42" r="2" style="fill:#581dd6;"/><circle cx="82" cy="42" r="2" style="fill:#581dd6;"/><circle cx="82" cy="42" r="2" style="fill:#581dd6;"/><circle cx="122" cy="42" r="2" style="fill:#581dd6;"/><circle cx="162" cy="42" r="2" style="fill:#581dd6;"/><circle cx="202" cy="42" r="2" style="fill:#581dd6;"/><circle cx="242" cy="42" r="2" style="fill:#581dd6;"/><circle cx="282" cy="42" r="2" style="fill:#581dd6;"/><circle cx="322" cy="42" r="2" style="fill:#581dd6;"/><circle cx="362" cy="42" r="2" style="fill:#581dd6;"/><circle cx="402" cy="42" r="2" style="fill:#581dd6;"/><circle cx="442" cy="42" r="2" style="fill:#581dd6;"/><circle cx="482" cy="42" r="2" style="fill:#581dd6;"/><circle cx="522" cy="42" r="2" style="fill:#581dd6;"/><circle cx="562" cy="42" r="2" style="fill:#581dd6;"/><circle cx="602" cy="42" r="2" style="fill:#581dd6;"/><circle cx="642" cy="42" r="2" style="fill:#581dd6;"/><circle cx="682" cy="42" r="2" style="fill:#581dd6;"/><circle cx="722" cy="42" r="2" style="fill:#581dd6;"/><circle cx="762" cy="42" r="2" style="fill:#581dd6;"/></g><g><circle cx="2" cy="82" r="2" style="fill:#581dd6;"/><circle cx="42" cy="82" r="2" style="fill:#581dd6;"/><circle cx="82" cy="82" r="2" style="fill:#581dd6;"/><circle cx="82" cy="82" r="2" style="fill:#581dd6;"/><circle cx="122" cy="82" r="2" style="fill:#581dd6;"/><circle cx="162" cy="82" r="2" style="fill:#581dd6;"/><circle cx="202" cy="82" r="2" style="fill:#581dd6;"/><circle cx="242" cy="82" r="2" style="fill:#581dd6;"/><circle cx="282" cy="82" r="2" style="fill:#581dd6;"/><circle cx="322" cy="82" r="2" style="fill:#581dd6;"/><circle cx="362" cy="82" r="2" style="fill:#581dd6;"/><circle cx="402" cy="82" r="2" style="fill:#581dd6;"/><circle cx="442" cy="82" r="2" style="fill:#581dd6;"/><circle cx="482" cy="82" r="2" style="fill:#581dd6;"/><circle cx="522" cy="82" r="2" style="fill:#581dd6;"/><circle cx="562" cy="82" r="2" style="fill:#581dd6;"/><circle cx="602" cy="82" r="2" style="fill:#581dd6;"/><circle cx="642" cy="82" r="2" style="fill:#581dd6;"/><circle cx="682" cy="82" r="2" style="fill:#581dd6;"/><circle cx="722" cy="82" r="2" style="fill:#581dd6;"/><circle cx="762" cy="82" r="2" style="fill:#581dd6;"/></g><g><circle cx="2" cy="122" r="2" style="fill:#581dd6;"/><circle cx="42" cy="122" r="2" style="fill:#581dd6;"/><circle cx="82" cy="122" r="2" style="fill:#581dd6;"/><circle cx="82" cy="122" r="2" style="fill:#581dd6;"/><circle cx="122" cy="122" r="2" style="fill:#581dd6;"/><circle cx="162" cy="122" r="2" style="fill:#581dd6;"/><circle cx="202" cy="122" r="2" style="fill:#581dd6;"/><circle cx="242" cy="122" r="2" style="fill:#581dd6;"/><circle cx="282" cy="122" r="2" style="fill:#581dd6;"/><circle cx="322" cy="122" r="2" style="fill:#581dd6;"/><circle cx="362" cy="122" r="2" style="fill:#581dd6;"/><circle cx="402" cy="122" r="2" style="fill:#581dd6;"/><circle cx="442" cy="122" r="2" style="fill:#581dd6;"/><circle cx="482" cy="122" r="2" style="fill:#581dd6;"/><circle cx="522" cy="122" r="2" style="fill:#581dd6;"/><circle cx="562" cy="122" r="2" style="fill:#581dd6;"/><circle cx="602" cy="122" r="2" style="fill:#581dd6;"/><circle cx="642" cy="122" r="2" style="fill:#581dd6;"/><circle cx="682" cy="122" r="2" style="fill:#581dd6;"/><circle cx="722" cy="122" r="2" style="fill:#581dd6;"/><circle cx="762" cy="122" r="2" style="fill:#581dd6;"/></g><g><circle cx="2" cy="162" r="2" style="fill:#581dd6;"/><circle cx="42" cy="162" r="2" style="fill:#581dd6;"/><circle cx="82" cy="162" r="2" style="fill:#581dd6;"/><circle cx="82" cy="162" r="2" style="fill:#581dd6;"/><circle cx="122" cy="162" r="2" style="fill:#581dd6;"/><circle cx="162" cy="162" r="2" style="fill:#581dd6;"/><circle cx="202" cy="162" r="2" style="fill:#581dd6;"/><circle cx="242" cy="162" r="2" style="fill:#581dd6;"/><circle cx="282" cy="162" r="2" style="fill:#581dd6;"/><circle cx="322" cy="162" r="2" style="fill:#581dd6;"/><circle cx="362" cy="162" r="2" style="fill:#581dd6;"/><circle cx="402" cy="162" r="2" style="fill:#581dd6;"/><circle cx="442" cy="162" r="2" style="fill:#581dd6;"/><circle cx="482" cy="162" r="2" style="fill:#581dd6;"/><circle cx="522" cy="162" r="2" style="fill:#581dd6;"/><circle cx="562" cy="162" r="2" style="fill:#581dd6;"/><circle cx="602" cy="162" r="2" style="fill:#581dd6;"/><circle cx="642" cy="162" r="2" style="fill:#581dd6;"/><circle cx="682" cy="162" r="2" style="fill:#581dd6;"/><circle cx="722" cy="162" r="2" style="fill:#581dd6;"/><circle cx="762" cy="162" r="2" style="fill:#581dd6;"/></g><g><circle cx="2" cy="202" r="2" style="fill:#581dd6;"/><circle cx="42" cy="202" r="2" style="fill:#581dd6;"/><circle cx="82" cy="202" r="2" style="fill:#581dd6;"/><circle cx="82" cy="202" r="2" style="fill:#581dd6;"/><circle cx="122" cy="202" r="2" style="fill:#581dd6;"/><circle cx="162" cy="202" r="2" style="fill:#581dd6;"/><circle cx="202" cy="202" r="2" style="fill:#581dd6;"/><circle cx="242" cy="202" r="2" style="fill:#581dd6;"/><circle cx="282" cy="202" r="2" style="fill:#581dd6;"/><circle cx="322" cy="202" r="2" style="fill:#581dd6;"/><circle cx="362" cy="202" r="2" style="fill:#581dd6;"/><circle cx="402" cy="202" r="2" style="fill:#581dd6;"/><circle cx="442" cy="202" r="2" style="fill:#581dd6;"/><circle cx="482" cy="202" r="2" style="fill:#581dd6;"/><circle cx="522" cy="202" r="2" style="fill:#581dd6;"/><circle cx="562" cy="202" r="2" style="fill:#581dd6;"/><circle cx="602" cy="202" r="2" style="fill:#581dd6;"/><circle cx="642" cy="202" r="2" style="fill:#581dd6;"/><circle cx="682" cy="202" r="2" style="fill:#581dd6;"/><circle cx="722" cy="202" r="2" style="fill:#581dd6;"/><circle cx="762" cy="202" r="2" style="fill:#581dd6;"/></g><g><circle cx="2" cy="242" r="2" style="fill:#581dd6;"/><circle cx="42" cy="242" r="2" style="fill:#581dd6;"/><circle cx="82" cy="242" r="2" style="fill:#581dd6;"/><circle cx="82" cy="242" r="2" style="fill:#581dd6;"/><circle cx="122" cy="242" r="2" style="fill:#581dd6;"/><circle cx="162" cy="242" r="2" style="fill:#581dd6;"/><circle cx="202" cy="242" r="2" style="fill:#581dd6;"/><circle cx="242" cy="242" r="2" style="fill:#581dd6;"/><circle cx="282" cy="242" r="2" style="fill:#581dd6;"/><circle cx="322" cy="242" r="2" style="fill:#581dd6;"/><circle cx="362" cy="242" r="2" style="fill:#581dd6;"/><circle cx="402" cy="242" r="2" style="fill:#581dd6;"/><circle cx="442" cy="242" r="2" style="fill:#581dd6;"/><circle cx="482" cy="242" r="2" style="fill:#581dd6;"/><circle cx="522" cy="242" r="2" style="fill:#581dd6;"/><circle cx="562" cy="242" r="2" style="fill:#581dd6;"/><circle cx="602" cy="242" r="2" style="fill:#581dd6;"/><circle cx="642" cy="242" r="2" style="fill:#581dd6;"/><circle cx="682" cy="242" r="2" style="fill:#581dd6;"/><circle cx="722" cy="242" r="2" style="fill:#581dd6;"/><circle cx="762" cy="242" r="2" style="fill:#581dd6;"/></g><g><circle cx="2" cy="282" r="2" style="fill:#581dd6;"/><circle cx="42" cy="282" r="2" style="fill:#581dd6;"/><circle cx="82" cy="282" r="2" style="fill:#581dd6;"/><circle cx="82" cy="282" r="2" style="fill:#581dd6;"/><circle cx="122" cy="282" r="2" style="fill:#581dd6;"/><circle cx="162" cy="282" r="2" style="fill:#581dd6;"/><circle cx="202" cy="282" r="2" style="fill:#581dd6;"/><circle cx="242" cy="282" r="2" style="fill:#581dd6;"/><circle cx="282" cy="282" r="2" style="fill:#581dd6;"/><circle cx="322" cy="282" r="2" style="fill:#581dd6;"/><circle cx="362" cy="282" r="2" style="fill:#581dd6;"/><circle cx="402" cy="282" r="2" style="fill:#581dd6;"/><circle cx="442" cy="282" r="2" style="fill:#581dd6;"/><circle cx="482" cy="282" r="2" style="fill:#581dd6;"/><circle cx="522" cy="282" r="2" style="fill:#581dd6;"/><circle cx="562" cy="282" r="2" style="fill:#581dd6;"/><circle cx="602" cy="282" r="2" style="fill:#581dd6;"/><circle cx="642" cy="282" r="2" style="fill:#581dd6;"/><circle cx="682" cy="282" r="2" style="fill:#581dd6;"/><circle cx="722" cy="282" r="2" style="fill:#581dd6;"/><circle cx="762" cy="282" r="2" style="fill:#581dd6;"/></g><g><circle cx="2" cy="322" r="2" style="fill:#581dd6;"/><circle cx="42" cy="322" r="2" style="fill:#581dd6;"/><circle cx="82" cy="322" r="2" style="fill:#581dd6;"/><circle cx="82" cy="322" r="2" style="fill:#581dd6;"/><circle cx="122" cy="322" r="2" style="fill:#581dd6;"/><circle cx="162" cy="322" r="2" style="fill:#581dd6;"/><circle cx="202" cy="322" r="2" style="fill:#581dd6;"/><circle cx="242" cy="322" r="2" style="fill:#581dd6;"/><circle cx="282" cy="322" r="2" style="fill:#581dd6;"/><circle cx="322" cy="322" r="2" style="fill:#581dd6;"/><circle cx="362" cy="322" r="2" style="fill:#581dd6;"/><circle cx="402" cy="322" r="2" style="fill:#581dd6;"/><circle cx="442" cy="322" r="2" style="fill:#581dd6;"/><circle cx="482" cy="322" r="2" style="fill:#581dd6;"/><circle cx="522" cy="322" r="2" style="fill:#581dd6;"/><circle cx="562" cy="322" r="2" style="fill:#581dd6;"/><circle cx="602" cy="322" r="2" style="fill:#581dd6;"/><circle cx="642" cy="322" r="2" style="fill:#581dd6;"/><circle cx="682" cy="322" r="2" style="fill:#581dd6;"/><circle cx="722" cy="322" r="2" style="fill:#581dd6;"/><circle cx="762" cy="322" r="2" style="fill:#581dd6;"/></g><g><circle cx="2" cy="362" r="2" style="fill:#581dd6;"/><circle cx="42" cy="362" r="2" style="fill:#581dd6;"/><circle cx="82" cy="362" r="2" style="fill:#581dd6;"/><circle cx="82" cy="362" r="2" style="fill:#581dd6;"/><circle cx="122" cy="362" r="2" style="fill:#581dd6;"/><circle cx="162" cy="362" r="2" style="fill:#581dd6;"/><circle cx="202" cy="362" r="2" style="fill:#581dd6;"/><circle cx="242" cy="362" r="2" style="fill:#581dd6;"/><circle cx="282" cy="362" r="2" style="fill:#581dd6;"/><circle cx="322" cy="362" r="2" style="fill:#581dd6;"/><circle cx="362" cy="362" r="2" style="fill:#581dd6;"/><circle cx="402" cy="362" r="2" style="fill:#581dd6;"/><circle cx="442" cy="362" r="2" style="fill:#581dd6;"/><circle cx="482" cy="362" r="2" style="fill:#581dd6;"/><circle cx="522" cy="362" r="2" style="fill:#581dd6;"/><circle cx="562" cy="362" r="2" style="fill:#581dd6;"/><circle cx="602" cy="362" r="2" style="fill:#581dd6;"/><circle cx="642" cy="362" r="2" style="fill:#581dd6;"/><circle cx="682" cy="362" r="2" style="fill:#581dd6;"/><circle cx="722" cy="362" r="2" style="fill:#581dd6;"/><circle cx="762" cy="362" r="2" style="fill:#581dd6;"/></g><g><circle cx="2" cy="402" r="2" style="fill:#581dd6;"/><circle cx="42" cy="402" r="2" style="fill:#581dd6;"/><circle cx="82" cy="402" r="2" style="fill:#581dd6;"/><circle cx="82" cy="402" r="2" style="fill:#581dd6;"/><circle cx="122" cy="402" r="2" style="fill:#581dd6;"/><circle cx="162" cy="402" r="2" style="fill:#581dd6;"/><circle cx="202" cy="402" r="2" style="fill:#581dd6;"/><circle cx="242" cy="402" r="2" style="fill:#581dd6;"/><circle cx="282" cy="402" r="2" style="fill:#581dd6;"/><circle cx="322" cy="402" r="2" style="fill:#581dd6;"/><circle cx="362" cy="402" r="2" style="fill:#581dd6;"/><circle cx="402" cy="402" r="2" style="fill:#581dd6;"/><circle cx="442" cy="402" r="2" style="fill:#581dd6;"/><circle cx="482" cy="402" r="2" style="fill:#581dd6;"/><circle cx="522" cy="402" r="2" style="fill:#581dd6;"/><circle cx="562" cy="402" r="2" style="fill:#581dd6;"/><circle cx="602" cy="402" r="2" style="fill:#581dd6;"/><circle cx="642" cy="402" r="2" style="fill:#581dd6;"/><circle cx="682" cy="402" r="2" style="fill:#581dd6;"/><circle cx="722" cy="402" r="2" style="fill:#581dd6;"/><circle cx="762" cy="402" r="2" style="fill:#581dd6;"/></g><g><circle cx="2" cy="442" r="2" style="fill:#581dd6;"/><circle cx="42" cy="442" r="2" style="fill:#581dd6;"/><circle cx="82" cy="442" r="2" style="fill:#581dd6;"/><circle cx="82" cy="442" r="2" style="fill:#581dd6;"/><circle cx="122" cy="442" r="2" style="fill:#581dd6;"/><circle cx="162" cy="442" r="2" style="fill:#581dd6;"/><circle cx="202" cy="442" r="2" style="fill:#581dd6;"/><circle cx="242" cy="442" r="2" style="fill:#581dd6;"/><circle cx="282" cy="442" r="2" style="fill:#581dd6;"/><circle cx="322" cy="442" r="2" style="fill:#581dd6;"/><circle cx="362" cy="442" r="2" style="fill:#581dd6;"/><circle cx="402" cy="442" r="2" style="fill:#581dd6;"/><circle cx="442" cy="442" r="2" style="fill:#581dd6;"/><circle cx="482" cy="442" r="2" style="fill:#581dd6;"/><circle cx="522" cy="442" r="2" style="fill:#581dd6;"/><circle cx="562" cy="442" r="2" style="fill:#581dd6;"/><circle cx="602" cy="442" r="2" style="fill:#581dd6;"/><circle cx="642" cy="442" r="2" style="fill:#581dd6;"/><circle cx="682" cy="442" r="2" style="fill:#581dd6;"/><circle cx="722" cy="442" r="2" style="fill:#581dd6;"/><circle cx="762" cy="442" r="2" style="fill:#581dd6;"/></g><g><circle cx="2" cy="482" r="2" style="fill:#581dd6;"/><circle cx="42" cy="482" r="2" style="fill:#581dd6;"/><circle cx="82" cy="482" r="2" style="fill:#581dd6;"/><circle cx="82" cy="482" r="2" style="fill:#581dd6;"/><circle cx="122" cy="482" r="2" style="fill:#581dd6;"/><circle cx="162" cy="482" r="2" style="fill:#581dd6;"/><circle cx="202" cy="482" r="2" style="fill:#581dd6;"/><circle cx="242" cy="482" r="2" style="fill:#581dd6;"/><circle cx="282" cy="482" r="2" style="fill:#581dd6;"/><circle cx="322" cy="482" r="2" style="fill:#581dd6;"/><circle cx="362" cy="482" r="2" style="fill:#581dd6;"/><circle cx="402" cy="482" r="2" style="fill:#581dd6;"/><circle cx="442" cy="482" r="2" style="fill:#581dd6;"/><circle cx="482" cy="482" r="2" style="fill:#581dd6;"/><circle cx="522" cy="482" r="2" style="fill:#581dd6;"/><circle cx="562" cy="482" r="2" style="fill:#581dd6;"/><circle cx="602" cy="482" r="2" style="fill:#581dd6;"/><circle cx="642" cy="482" r="2" style="fill:#581dd6;"/><circle cx="682" cy="482" r="2" style="fill:#581dd6;"/><circle cx="722" cy="482" r="2" style="fill:#581dd6;"/><circle cx="762" cy="482" r="2" style="fill:#581dd6;"/></g><g><circle cx="2" cy="482" r="2" style="fill:#581dd6;"/><circle cx="42" cy="482" r="2" style="fill:#581dd6;"/><circle cx="82" cy="482" r="2" style="fill:#581dd6;"/><circle cx="82" cy="482" r="2" style="fill:#581dd6;"/><circle cx="122" cy="482" r="2" style="fill:#581dd6;"/><circle cx="162" cy="482" r="2" style="fill:#581dd6;"/><circle cx="202" cy="482" r="2" style="fill:#581dd6;"/><circle cx="242" cy="482" r="2" style="fill:#581dd6;"/><circle cx="282" cy="482" r="2" style="fill:#581dd6;"/><circle cx="322" cy="482" r="2" style="fill:#581dd6;"/><circle cx="362" cy="482" r="2" style="fill:#581dd6;"/><circle cx="402" cy="482" r="2" style="fill:#581dd6;"/><circle cx="442" cy="482" r="2" style="fill:#581dd6;"/><circle cx="482" cy="482" r="2" style="fill:#581dd6;"/><circle cx="522" cy="482" r="2" style="fill:#581dd6;"/><circle cx="562" cy="482" r="2" style="fill:#581dd6;"/><circle cx="602" cy="482" r="2" style="fill:#581dd6;"/><circle cx="642" cy="482" r="2" style="fill:#581dd6;"/><circle cx="682" cy="482" r="2" style="fill:#581dd6;"/><circle cx="722" cy="482" r="2" style="fill:#581dd6;"/><circle cx="762" cy="482" r="2" style="fill:#581dd6;"/></g><g><circle cx="2" cy="522" r="2" style="fill:#581dd6;"/><circle cx="42" cy="522" r="2" style="fill:#581dd6;"/><circle cx="82" cy="522" r="2" style="fill:#581dd6;"/><circle cx="82" cy="522" r="2" style="fill:#581dd6;"/><circle cx="122" cy="522" r="2" style="fill:#581dd6;"/><circle cx="162" cy="522" r="2" style="fill:#581dd6;"/><circle cx="202" cy="522" r="2" style="fill:#581dd6;"/><circle cx="242" cy="522" r="2" style="fill:#581dd6;"/><circle cx="282" cy="522" r="2" style="fill:#581dd6;"/><circle cx="322" cy="522" r="2" style="fill:#581dd6;"/><circle cx="362" cy="522" r="2" style="fill:#581dd6;"/><circle cx="402" cy="522" r="2" style="fill:#581dd6;"/><circle cx="442" cy="522" r="2" style="fill:#581dd6;"/><circle cx="482" cy="522" r="2" style="fill:#581dd6;"/><circle cx="522" cy="522" r="2" style="fill:#581dd6;"/><circle cx="562" cy="522" r="2" style="fill:#581dd6;"/><circle cx="602" cy="522" r="2" style="fill:#581dd6;"/><circle cx="642" cy="522" r="2" style="fill:#581dd6;"/><circle cx="682" cy="522" r="2" style="fill:#581dd6;"/><circle cx="722" cy="522" r="2" style="fill:#581dd6;"/><circle cx="762" cy="522" r="2" style="fill:#581dd6;"/></g><g><circle cx="2" cy="562" r="2" style="fill:#581dd6;"/><circle cx="42" cy="562" r="2" style="fill:#581dd6;"/><circle cx="82" cy="562" r="2" style="fill:#581dd6;"/><circle cx="82" cy="562" r="2" style="fill:#581dd6;"/><circle cx="122" cy="562" r="2" style="fill:#581dd6;"/><circle cx="162" cy="562" r="2" style="fill:#581dd6;"/><circle cx="202" cy="562" r="2" style="fill:#581dd6;"/><circle cx="242" cy="562" r="2" style="fill:#581dd6;"/><circle cx="282" cy="562" r="2" style="fill:#581dd6;"/><circle cx="322" cy="562" r="2" style="fill:#581dd6;"/><circle cx="362" cy="562" r="2" style="fill:#581dd6;"/><circle cx="402" cy="562" r="2" style="fill:#581dd6;"/><circle cx="442" cy="562" r="2" style="fill:#581dd6;"/><circle cx="482" cy="562" r="2" style="fill:#581dd6;"/><circle cx="522" cy="562" r="2" style="fill:#581dd6;"/><circle cx="562" cy="562" r="2" style="fill:#581dd6;"/><circle cx="602" cy="562" r="2" style="fill:#581dd6;"/><circle cx="642" cy="562" r="2" style="fill:#581dd6;"/><circle cx="682" cy="562" r="2" style="fill:#581dd6;"/><circle cx="722" cy="562" r="2" style="fill:#581dd6;"/><circle cx="762" cy="562" r="2" style="fill:#581dd6;"/></g></g></svg>